<?xml version="1.0" encoding="UTF-8"?>
<svg version="1.1" xmlns="http://www.w3.org/2000/svg" width="800" height="800">
<path d="M0 0 C1.63227036 0.00223572 1.63227036 0.00223572 3.29751587 0.0045166 C20.87280078 0.04762364 38.08737136 0.76417649 55.5 3.3125 C56.48178223 3.45171875 57.46356445 3.5909375 58.47509766 3.734375 C65.19606703 4.71610239 71.84709631 5.94747265 78.5 7.3125 C80.14427979 7.64411133 80.14427979 7.64411133 81.82177734 7.98242188 C139.67179128 19.88631433 194.41630713 44.63634052 241.5 80.3125 C242.1202002 80.78107422 242.74040039 81.24964844 243.37939453 81.73242188 C255.37199314 90.84563343 267.02045305 100.51778372 277.51953125 111.33203125 C279.47814856 113.29064856 281.51266401 115.08454378 283.625 116.875 C286.89199745 119.68718016 289.68725725 122.6815313 292.46875 125.96875 C294.49109057 128.30221989 296.58946318 130.55160281 298.70800781 132.79760742 C304.91121391 139.39465228 310.61472042 146.258052 316.09375 153.46484375 C317.54305493 155.3690694 319.00565374 157.26260718 320.46875 159.15625 C327.1955931 167.92557767 333.39630171 176.94702826 339.25341797 186.31884766 C340.03362442 187.56662789 340.81838792 188.81158322 341.60986328 190.05224609 C369.8632262 234.35656646 388.07123556 285.73622039 396.25 337.5 C396.44859619 338.74426758 396.64719238 339.98853516 396.85180664 341.27050781 C399.79646827 360.75697953 400.87969317 380.1171632 400.8125 399.8125 C400.81100952 400.90068024 400.80951904 401.98886047 400.8079834 403.11001587 C400.76487636 420.68530078 400.04832351 437.89987136 397.5 455.3125 C397.36078125 456.29428223 397.2215625 457.27606445 397.078125 458.28759766 C396.09639761 465.00856703 394.86502735 471.65959631 393.5 478.3125 C393.16838867 479.95677979 393.16838867 479.95677979 392.83007812 481.63427734 C380.92618567 539.48429128 356.17615948 594.22880713 320.5 641.3125 C320.03142578 641.9327002 319.56285156 642.55290039 319.08007812 643.19189453 C309.96686657 655.18449314 300.29471628 666.83295305 289.48046875 677.33203125 C287.52185144 679.29064856 285.72795622 681.32516401 283.9375 683.4375 C281.12531984 686.70449745 278.1309687 689.49975725 274.84375 692.28125 C272.51028011 694.30359057 270.26089719 696.40196318 268.01489258 698.52050781 C261.41784772 704.72371391 254.554448 710.42722042 247.34765625 715.90625 C245.4434306 717.35555493 243.54989282 718.81815374 241.65625 720.28125 C232.88692233 727.0080931 223.86547174 733.20880171 214.49365234 739.06591797 C213.24587211 739.84612442 212.00091678 740.63088792 210.76025391 741.42236328 C166.45593354 769.6757262 115.07627961 787.88373556 63.3125 796.0625 C62.06823242 796.26109619 60.82396484 796.45969238 59.54199219 796.66430664 C40.05552047 799.60896827 20.6953368 800.69219317 1 800.625 C-0.63227036 800.62276428 -0.63227036 800.62276428 -2.29751587 800.6204834 C-19.87280078 800.57737636 -37.08737136 799.86082351 -54.5 797.3125 C-55.48178223 797.17328125 -56.46356445 797.0340625 -57.47509766 796.890625 C-64.19606703 795.90889761 -70.84709631 794.67752735 -77.5 793.3125 C-79.14427979 792.98088867 -79.14427979 792.98088867 -80.82177734 792.64257812 C-138.67179128 780.73868567 -193.41630713 755.98865948 -240.5 720.3125 C-241.1202002 719.84392578 -241.74040039 719.37535156 -242.37939453 718.89257812 C-254.37199314 709.77936657 -266.02045305 700.10721628 -276.51953125 689.29296875 C-278.47814856 687.33435144 -280.51266401 685.54045622 -282.625 683.75 C-285.89199745 680.93781984 -288.68725725 677.9434687 -291.46875 674.65625 C-293.49109057 672.32278011 -295.58946318 670.07339719 -297.70800781 667.82739258 C-303.91121391 661.23034772 -309.61472042 654.366948 -315.09375 647.16015625 C-316.54305493 645.2559306 -318.00565374 643.36239282 -319.46875 641.46875 C-326.1955931 632.69942233 -332.39630171 623.67797174 -338.25341797 614.30615234 C-339.03362442 613.05837211 -339.81838792 611.81341678 -340.60986328 610.57275391 C-368.8632262 566.26843354 -387.07123556 514.88877961 -395.25 463.125 C-395.44859619 461.88073242 -395.64719238 460.63646484 -395.85180664 459.35449219 C-398.79646827 439.86802047 -399.87969317 420.5078368 -399.8125 400.8125 C-399.81100952 399.72431976 -399.80951904 398.63613953 -399.8079834 397.51498413 C-399.76487636 379.93969922 -399.04832351 362.72512864 -396.5 345.3125 C-396.36078125 344.33071777 -396.2215625 343.34893555 -396.078125 342.33740234 C-395.09639761 335.61643297 -393.86502735 328.96540369 -392.5 322.3125 C-392.16838867 320.66822021 -392.16838867 320.66822021 -391.83007812 318.99072266 C-379.92618567 261.14070872 -355.17615948 206.39619287 -319.5 159.3125 C-319.03142578 158.6922998 -318.56285156 158.07209961 -318.08007812 157.43310547 C-308.96686657 145.44050686 -299.29471628 133.79204695 -288.48046875 123.29296875 C-286.52185144 121.33435144 -284.72795622 119.29983599 -282.9375 117.1875 C-280.12531984 113.92050255 -277.1309687 111.12524275 -273.84375 108.34375 C-271.51028011 106.32140943 -269.26089719 104.22303682 -267.01489258 102.10449219 C-260.41784772 95.90128609 -253.554448 90.19777958 -246.34765625 84.71875 C-244.4434306 83.26944507 -242.54989282 81.80684626 -240.65625 80.34375 C-231.88692233 73.6169069 -222.86547174 67.41619829 -213.49365234 61.55908203 C-212.24587211 60.77887558 -211.00091678 59.99411208 -209.76025391 59.20263672 C-165.45593354 30.9492738 -114.07627961 12.74126444 -62.3125 4.5625 C-60.44609863 4.26460571 -60.44609863 4.26460571 -58.54199219 3.96069336 C-39.05552047 1.01603173 -19.6953368 -0.06719317 0 0 Z " fill="#1B3121" transform="translate(399.5,-0.3125)"/>
<path d="M0 0 C1.03523862 -0.00913666 1.03523862 -0.00913666 2.09139115 -0.01845789 C4.39752691 -0.03506976 6.70310943 -0.03031489 9.0092926 -0.0255127 C10.66530429 -0.03285407 12.32131085 -0.0414405 13.97731018 -0.05117798 C18.47112062 -0.07339467 22.96474771 -0.07632462 27.45860553 -0.07443047 C31.21115308 -0.07431078 34.96366176 -0.08287403 38.7161985 -0.09120798 C47.56929401 -0.11044231 56.42229521 -0.11332563 65.27540588 -0.10656738 C74.40675122 -0.09992501 83.53769278 -0.1227987 92.66895622 -0.15988111 C100.51114781 -0.1905723 108.35320945 -0.20193882 116.1954599 -0.1980443 C120.8782782 -0.19597634 125.56078223 -0.20146337 130.24354362 -0.22593689 C134.64730889 -0.24819219 139.05041727 -0.24633663 143.45418549 -0.22600937 C145.06906964 -0.22259723 146.68399792 -0.2276973 148.2988224 -0.24199295 C150.50645793 -0.26018606 152.71186492 -0.24744022 154.91943359 -0.22705078 C156.15367286 -0.22776329 157.38791212 -0.2284758 158.65955257 -0.2292099 C163.02794377 0.58068626 164.95930139 2.22462606 168.02320862 5.39440918 C170.24421184 9.29388988 170.27635 12.7889558 170.28390503 17.22607422 C170.28773058 17.90060465 170.29155612 18.57513509 170.2954976 19.27010584 C170.30579043 21.52320882 170.30184263 23.7760552 170.29786682 26.0291748 C170.30221531 27.64739721 170.30739891 29.26561755 170.31335449 30.88383484 C170.32673969 35.27425355 170.3273238 39.66458615 170.32479119 44.05502129 C170.32372136 47.7206671 170.32860506 51.3862955 170.33339661 55.05193758 C170.3444897 63.69882288 170.34493003 72.34566474 170.33888245 80.99255371 C170.33283909 89.91364477 170.3451633 98.83457824 170.36645252 107.75564241 C170.3840613 115.41606543 170.3900711 123.07643826 170.38681477 130.73688078 C170.38500094 135.31171676 170.38764826 139.88644028 170.40152931 144.46125793 C170.41409162 148.76228841 170.41217878 153.06307287 170.39911842 157.3640995 C170.39674977 158.94231054 170.39949769 160.52053881 170.40774155 162.09873009 C170.41818645 164.25368774 170.41012749 166.40781637 170.39743042 168.56274414 C170.39768203 170.37123966 170.39768203 170.37123966 170.39793873 172.21627045 C169.84166594 176.93409815 167.65595689 180.36711896 164.02320862 183.39440918 C159.51761221 184.89627465 155.68107525 185.11030613 151.27320862 183.20690918 C147.96827484 180.54460142 146.22947771 177.91628688 145.65406513 173.670825 C145.65683051 172.67989755 145.65959589 171.68897009 145.66244507 170.66801453 C145.65625908 168.95383835 145.65625908 168.95383835 145.64994812 167.20503235 C145.66073395 165.96065903 145.67151978 164.71628571 145.68263245 163.4342041 C145.68219437 162.11674194 145.68175629 160.79927979 145.68130493 159.44189453 C145.68044527 155.83681035 145.69806611 152.23202649 145.7190268 148.62701201 C145.73779852 144.856729 145.73954443 141.08643887 145.74310303 137.31611633 C145.75242205 130.17989914 145.77703385 123.04382006 145.8071515 115.90766364 C145.84069998 107.78196606 145.85718263 99.65626183 145.8722378 91.53051221 C145.90358358 74.81839706 145.95634124 58.10642075 146.02320862 41.39440918 C145.36320862 41.39440918 144.70320862 41.39440918 144.02320862 41.39440918 C143.65336816 42.25146322 143.65336816 42.25146322 143.27605617 43.12583148 C141.81515338 45.77114254 140.11478173 47.55357842 137.97764778 49.6916523 C137.12618396 50.54833161 136.27472014 51.40501093 135.39745438 52.28765023 C134.44720473 53.23357575 133.49686069 54.17940646 132.5464325 55.12515259 C131.54068153 56.13320752 130.53536704 57.1416981 129.53045261 58.15058696 C126.76520982 60.92419521 123.99374332 63.69151101 121.22122407 66.45784307 C118.2332459 69.44130492 115.25101765 72.43050468 112.26805115 75.41897583 C106.42247574 81.27345565 100.5714924 87.1225019 94.71856798 92.96963371 C89.96287965 97.72080969 85.20914165 102.4739288 80.45679855 107.22845078 C79.78103628 107.90451951 79.10527401 108.58058825 78.4090341 109.27714392 C77.03634761 110.65046984 75.66366562 112.02380026 74.29098807 113.39713512 C61.41190052 126.28192905 48.526684 139.16057979 35.63937376 152.0371487 C24.57585481 163.09173187 13.51759022 174.15154841 2.46315002 185.21520996 C-10.36659472 198.05565192 -23.19957033 210.89285054 -36.03773701 223.72487247 C-37.4060788 225.09257715 -38.77441641 226.46028601 -40.14274979 227.82799911 C-40.81603987 228.50098065 -41.48932995 229.17396218 -42.18302276 229.86733709 C-46.93292884 234.61551458 -51.68050654 239.36601255 -56.4271965 244.11740494 C-62.2099882 249.90579938 -67.99631648 255.69063009 -73.78724132 261.47088827 C-76.74311246 264.42149453 -79.69734585 267.37369324 -82.64728546 270.33023071 C-85.34598375 273.03487365 -88.04922852 275.73488267 -90.75622715 278.4312173 C-91.73644273 279.40919255 -92.71496346 280.38886999 -93.69163893 281.37038065 C-95.0163381 282.70113546 -96.34777006 284.02517805 -97.67954826 285.34884834 C-98.78746485 286.45627787 -98.78746485 286.45627787 -99.91776359 287.58607972 C-103.70760998 290.91449078 -106.82061683 291.91108165 -111.94554138 291.77722168 C-115.70140158 291.06938649 -117.38742145 289.16873411 -119.97679138 286.39440918 C-121.78906132 283.40022406 -121.97308832 281.59067155 -122.03929138 278.08190918 C-119.52320708 269.34961661 -110.26626115 262.5436815 -103.98571777 256.28308105 C-102.98538632 255.28231276 -101.98527498 254.28132442 -100.98536295 253.28013706 C-98.25563642 250.54818786 -95.52282432 247.81934407 -92.78947151 245.09102368 C-89.83546477 242.14135343 -86.88436713 239.18877512 -83.9329071 236.23655701 C-78.82505917 231.12818586 -73.71539003 226.02164233 -68.60446358 220.91635132 C-61.21501148 213.5350417 -53.82833689 206.15095766 -46.44232755 198.76620328 C-34.4576437 186.78370563 -22.47073046 174.80344078 -10.48240662 162.82458496 C1.16004401 151.19131962 12.80143922 139.55699978 24.44142151 127.92126465 C25.15944838 127.2035005 25.87747525 126.48573636 26.61726051 125.74622178 C30.21954446 122.14524291 33.82180772 118.54424334 37.4240607 114.94323349 C67.28723685 85.09041652 97.15403481 55.24122513 127.02320862 25.39440918 C126.34844671 25.39202083 125.67368481 25.38963247 124.97847557 25.38717175 C108.55290542 25.32801155 92.12750063 25.25245503 75.70209312 25.15869427 C67.75885216 25.11374662 59.81565592 25.07432961 51.87232971 25.04797363 C44.94816501 25.02498516 38.02414199 24.99157772 31.10008967 24.94570762 C27.43452205 24.92178672 23.76909465 24.90305058 20.10345078 24.89679527 C16.00928026 24.88961335 11.91559719 24.85916876 7.82154846 24.82678223 C6.00245972 24.82893486 6.00245972 24.82893486 4.1466217 24.83113098 C-2.57703895 24.75578822 -7.64383303 24.49750833 -12.78929138 19.70690918 C-14.50693188 16.36203031 -15.09150718 13.11550297 -14.97679138 9.39440918 C-13.77251654 5.84848881 -12.78736886 4.00511638 -9.79565334 1.751091 C-6.32394447 0.0802024 -3.84901067 0.01163166 0 0 Z " fill="#F3F6D1" transform="translate(375.97679138183594,209.6055908203125)"/>
<path d="M0 0 C5.33597957 3.61277904 7.53667915 9.05147816 8.75390625 15.1875 C9.0134011 21.24570659 7.70181656 25.47194046 3.75390625 30.1875 C-1.84639132 35.35700545 -6.97054751 36.72997549 -14.4609375 36.55859375 C-19.8222479 35.84425365 -23.16021274 33.34460622 -26.84765625 29.53125 C-30.68244648 24.47532545 -30.92666912 19.45880889 -30.66796875 13.25 C-29.91323105 7.77116339 -27.85782161 4.79922786 -23.93359375 0.875 C-16.21505629 -3.97152352 -7.84628555 -4.42217268 0 0 Z " fill="#EFF3CD" transform="translate(521.24609375,553.8125)"/>
<path d="M0 0 C3.17625 -0.061875 6.3525 -0.12375 9.625 -0.1875 C11.1092749 -0.22846802 11.1092749 -0.22846802 12.62353516 -0.27026367 C17.84778777 -0.31936975 21.50207628 0.03418155 26 3 C29.45384444 6.72651637 30.23601162 9.43010863 30.25 14.375 C30.18629371 15.91760237 30.10956696 17.45997544 30 19 C29.34 19 28.68 19 28 19 C27.87625 19.639375 27.7525 20.27875 27.625 20.9375 C27.315625 21.9584375 27.315625 21.9584375 27 23 C26.34 23.33 25.68 23.66 25 24 C26.00443142 27.24508611 27.10301294 30.20602588 28.625 33.25 C30 36 30 36 30 38 C26.7 38 23.4 38 20 38 C19.175 36.576875 18.35 35.15375 17.5 33.6875 C17.0359375 32.88699219 16.571875 32.08648438 16.09375 31.26171875 C15 29 15 29 15 26 C13.02 26 11.04 26 9 26 C9 29.96 9 33.92 9 38 C6.03 38 3.06 38 0 38 C0 25.46 0 12.92 0 0 Z " fill="#F3F6D0" transform="translate(536,552)"/>
<path d="M0 0 C9 0 9 0 11.12329102 1.74414062 C11.57889404 2.54013672 12.03449707 3.33613281 12.50390625 4.15625 C13.01630859 5.01347656 13.52871094 5.87070312 14.05664062 6.75390625 C14.55357422 7.66011719 15.05050781 8.56632813 15.5625 9.5 C16.09423828 10.40621094 16.62597656 11.31242188 17.17382812 12.24609375 C18.47903941 14.48023919 19.74359574 16.73804716 21 19 C21.33 12.73 21.66 6.46 22 0 C24.97 0 27.94 0 31 0 C32 1 32 1 32.11352539 4.51000977 C32.11336626 6.07048422 32.10767142 7.63096393 32.09765625 9.19140625 C32.0962413 10.01124496 32.09482635 10.83108368 32.09336853 11.67576599 C32.08775289 14.30471382 32.07519779 16.93357773 32.0625 19.5625 C32.05748701 21.34049357 32.05292376 23.11848846 32.04882812 24.89648438 C32.03777839 29.26435545 32.02050331 33.63216348 32 38 C30.55157069 38.05748071 29.1024869 38.09864098 27.65332031 38.1328125 C26.8464679 38.15746582 26.03961548 38.18211914 25.20831299 38.20751953 C23 38 23 38 20.546875 35.875 C19.95390625 34.92625 19.3609375 33.9775 18.75 33 C18.14671875 32.071875 17.5434375 31.14375 16.921875 30.1875 C16.28765625 29.135625 15.6534375 28.08375 15 27 C12.525 23.04 12.525 23.04 10 19 C9.67 25.27 9.34 31.54 9 38 C6.03 38 3.06 38 0 38 C0 25.46 0 12.92 0 0 Z " fill="#EDF1CC" transform="translate(588,552)"/>
<path d="M0 0 C3.3 0 6.6 0 10 0 C10 5.28 10 10.56 10 16 C14.29 16 18.58 16 23 16 C22.98839844 14.92878906 22.97679687 13.85757813 22.96484375 12.75390625 C22.95546701 11.35677257 22.94636669 9.95963701 22.9375 8.5625 C22.92912109 7.85544922 22.92074219 7.14839844 22.91210938 6.41992188 C22.90346412 4.61306441 22.94779989 2.80612397 23 1 C23.33 0.67 23.66 0.34 24 0 C26.97 0 29.94 0 33 0 C33 12.54 33 25.08 33 38 C30.03 38 27.06 38 24 38 C23 37 23 37 22.90234375 34.05859375 C22.93489583 30.70572917 22.96744792 27.35286458 23 24 C18.71 24 14.42 24 10 24 C10 28.62 10 33.24 10 38 C6.7 38 3.4 38 0 38 C0 25.46 0 12.92 0 0 Z " fill="#ECF0CB" transform="translate(212,552)"/>
<path d="M0 0 C1.49609375 1.265625 1.49609375 1.265625 2.33203125 3.234375 C2.49609375 5.265625 2.49609375 5.265625 0.55859375 8.015625 C-0.12203125 8.758125 -0.80265625 9.500625 -1.50390625 10.265625 C-6.25390625 8.390625 -6.25390625 8.390625 -8.50390625 7.265625 C-12.89657587 6.76834165 -14.804418 6.73340568 -18.37890625 9.453125 C-20.56721044 12.34940995 -21.41633476 13.67519384 -21.50390625 17.265625 C-20.79015402 20.5099533 -20.05972416 22.62429664 -17.87890625 25.140625 C-14.34098594 26.81648199 -11.39569381 26.46021438 -7.50390625 26.265625 C-7.17390625 25.275625 -6.84390625 24.285625 -6.50390625 23.265625 C-7.82390625 23.265625 -9.14390625 23.265625 -10.50390625 23.265625 C-10.6015625 17.11328125 -10.6015625 17.11328125 -10.50390625 15.265625 C-9.50390625 14.265625 -9.50390625 14.265625 -6.78125 14.16796875 C-5.67910156 14.17957031 -4.57695313 14.19117188 -3.44140625 14.203125 C-2.33667969 14.21214844 -1.23195313 14.22117187 -0.09375 14.23046875 C0.76089844 14.24207031 1.61554687 14.25367188 2.49609375 14.265625 C2.60397193 17.03749488 2.68332702 19.80518037 2.74609375 22.578125 C2.79636719 23.75665039 2.79636719 23.75665039 2.84765625 24.95898438 C2.94686223 30.78733591 2.94686223 30.78733591 0.640625 33.234375 C-5.67544667 36.27161165 -11.5336189 37.22465744 -18.50390625 36.265625 C-24.17927089 34.06535884 -27.59471091 30.61854442 -30.50390625 25.265625 C-32.34627799 19.73850977 -32.5247286 13.45309071 -30.73828125 7.875 C-24.51985597 -3.59843256 -10.87645393 -5.51482171 0 0 Z " fill="#EEF2CD" transform="translate(657.50390625,553.734375)"/>
<path d="M0 0 C1.49609375 1.265625 1.49609375 1.265625 2.33203125 3.234375 C2.49609375 5.265625 2.49609375 5.265625 0.55859375 8.015625 C-0.12203125 8.758125 -0.80265625 9.500625 -1.50390625 10.265625 C-6.25390625 8.390625 -6.25390625 8.390625 -8.50390625 7.265625 C-13.5826955 6.74451529 -13.5826955 6.74451529 -17.87890625 9.140625 C-20.44302616 12.49370488 -20.9253804 14.95193242 -20.83203125 19.22265625 C-20.59317867 21.55534837 -20.59317867 21.55534837 -18.62890625 24.265625 C-14.25199275 27.06684964 -10.56192137 26.70758749 -5.50390625 26.265625 C-5.50390625 25.275625 -5.50390625 24.285625 -5.50390625 23.265625 C-7.15390625 23.265625 -8.80390625 23.265625 -10.50390625 23.265625 C-10.6015625 17.11328125 -10.6015625 17.11328125 -10.50390625 15.265625 C-9.50390625 14.265625 -9.50390625 14.265625 -6.78125 14.16796875 C-3.68880208 14.20052083 -0.59635417 14.23307292 2.49609375 14.265625 C2.49609375 20.205625 2.49609375 26.145625 2.49609375 32.265625 C-4.55841666 35.537282 -10.68450138 37.74743642 -18.50390625 36.265625 C-24.21769042 33.87177659 -28.50361824 30.31304496 -30.91796875 24.54296875 C-32.38006968 18.86026979 -32.25905821 13.41184635 -30.31640625 7.890625 C-22.83056481 -2.95093846 -11.68781122 -5.92621414 0 0 Z " fill="#EEF2CD" transform="translate(325.50390625,553.734375)"/>
<path d="M0 0 C3.3 0 6.6 0 10 0 C11.99811278 5.08865881 13.99182902 10.17900921 15.98144531 15.27099609 C16.65926719 17.00389354 17.33829962 18.73631798 18.01855469 20.46826172 C18.99470665 22.95417641 19.96652833 25.44174566 20.9375 27.9296875 C21.24373291 28.70682098 21.54996582 29.48395447 21.86547852 30.28463745 C24 35.77225659 24 35.77225659 24 38 C20.7 38 17.4 38 14 38 C13.34 36.02 12.68 34.04 12 32 C7.38 32 2.76 32 -2 32 C-2.66 33.98 -3.32 35.96 -4 38 C-7.3 38 -10.6 38 -14 38 C-11.63852209 29.56960444 -8.5541217 21.49620295 -5.3125 13.375 C-4.79584522 12.07176467 -4.27956658 10.76838015 -3.76367188 9.46484375 C-2.51279075 6.30841474 -1.25815732 3.15353412 0 0 Z " fill="#F0F4CF" transform="translate(265,552)"/>
<path d="M0 0 C3.46679688 0.04882812 3.46679688 0.04882812 6.93359375 0.09765625 C11.00512427 7.6202936 13.79416613 15.57209668 16.68359375 23.59765625 C17.19487199 25.00667034 17.70658721 26.41552595 18.21875 27.82421875 C19.46207545 31.24688509 20.69947071 34.67165937 21.93359375 38.09765625 C18.30359375 38.09765625 14.67359375 38.09765625 10.93359375 38.09765625 C10.27359375 36.44765625 9.61359375 34.79765625 8.93359375 33.09765625 C2.00359375 32.60265625 2.00359375 32.60265625 -5.06640625 32.09765625 C-5.39640625 34.07765625 -5.72640625 36.05765625 -6.06640625 38.09765625 C-9.36640625 38.09765625 -12.66640625 38.09765625 -16.06640625 38.09765625 C-15.44955468 33.3755668 -14.1183661 29.17254378 -12.37890625 24.765625 C-12.11634033 24.08840897 -11.85377441 23.41119293 -11.58325195 22.7134552 C-11.03120695 21.29301593 -10.47639341 19.87364981 -9.91894531 18.45532227 C-9.06310344 16.27674884 -8.21643876 14.09477453 -7.37109375 11.91210938 C-6.83256195 10.52974105 -6.29351773 9.14757222 -5.75390625 7.765625 C-5.49971924 7.11152145 -5.24553223 6.45741791 -4.98364258 5.78349304 C-2.75557482 0.13022565 -2.75557482 0.13022565 0 0 Z " fill="#F1F4CF" transform="translate(186.06640625,551.90234375)"/>
<path d="M0 0 C1.16781006 0.00523682 2.33562012 0.01047363 3.53881836 0.01586914 C4.79887695 0.0190918 6.05893555 0.02231445 7.35717773 0.02563477 C8.6976732 0.03399136 10.03816799 0.04245632 11.37866211 0.05102539 C12.72306153 0.05603879 14.06746271 0.06060197 15.41186523 0.06469727 C18.71334151 0.07653051 22.01473014 0.09301568 25.31616211 0.11352539 C25.31616211 2.75352539 25.31616211 5.39352539 25.31616211 8.11352539 C19.04616211 8.11352539 12.77616211 8.11352539 6.31616211 8.11352539 C6.31616211 10.42352539 6.31616211 12.73352539 6.31616211 15.11352539 C10.27616211 15.11352539 14.23616211 15.11352539 18.31616211 15.11352539 C18.31616211 17.75352539 18.31616211 20.39352539 18.31616211 23.11352539 C14.35616211 23.11352539 10.39616211 23.11352539 6.31616211 23.11352539 C6.31616211 25.09352539 6.31616211 27.07352539 6.31616211 29.11352539 C7.60393555 29.10192383 8.89170898 29.09032227 10.21850586 29.07836914 C11.89688983 29.06899269 13.57527537 29.05989234 15.25366211 29.05102539 C16.52886719 29.03845703 16.52886719 29.03845703 17.82983398 29.02563477 C18.6387207 29.02241211 19.44760742 29.01918945 20.28100586 29.01586914 C21.02987061 29.01063232 21.77873535 29.00539551 22.55029297 29 C24.31616211 29.11352539 24.31616211 29.11352539 25.31616211 30.11352539 C25.31616211 32.75352539 25.31616211 35.39352539 25.31616211 38.11352539 C15.74616211 38.11352539 6.17616211 38.11352539 -3.68383789 38.11352539 C-3.70674628 32.86241343 -3.72667352 27.61147361 -3.73876953 22.36035156 C-3.74381007 20.57258518 -3.75064243 18.78482295 -3.75927734 16.99707031 C-3.77135519 14.43301371 -3.77706883 11.86901142 -3.78149414 9.30493164 C-3.78665543 8.50076309 -3.79181671 7.69659454 -3.7971344 6.86805725 C-3.79733004 4.94950824 -3.74585772 3.03107171 -3.68383789 1.11352539 C-2.68383789 0.11352539 -2.68383789 0.11352539 0 0 Z " fill="#EFF2CD" transform="translate(337.683837890625,551.886474609375)"/>
<path d="M0 0 C1.47906892 -0.02689216 2.95827483 -0.04634621 4.4375 -0.0625 C5.26121094 -0.07410156 6.08492188 -0.08570313 6.93359375 -0.09765625 C9 0 9 0 10 1 C10.13358147 2.82899525 10.20347722 4.66272214 10.24609375 6.49609375 C10.27896484 7.61177734 10.31183594 8.72746094 10.34570312 9.87695312 C10.40679788 12.2466498 10.46410255 14.61644728 10.51757812 16.98632812 C10.56881836 18.66178711 10.56881836 18.66178711 10.62109375 20.37109375 C10.6461499 21.40161865 10.67120605 22.43214355 10.69702148 23.49389648 C10.75908138 26.17049914 10.75908138 26.17049914 13 28 C16 28.41666667 16 28.41666667 19 28 C21.25870108 24.61194839 21.29259413 23.22649259 21.4140625 19.23828125 C21.45273437 18.12001953 21.49140625 17.00175781 21.53125 15.84960938 C21.5621875 14.68236328 21.593125 13.51511719 21.625 12.3125 C21.66367187 11.13365234 21.70234375 9.95480469 21.7421875 8.74023438 C21.83654391 5.82698023 21.92213161 2.91373393 22 0 C25.3 0 28.6 0 32 0 C32.08765069 4.02069425 32.14061018 8.0411401 32.1875 12.0625 C32.21263672 13.19623047 32.23777344 14.32996094 32.26367188 15.49804688 C32.32931188 23.00288763 32.03032648 28.38315872 27.0625 34.3125 C22.42203583 38.10924341 18.57809876 38.44578 12.69140625 38.3046875 C8.76668064 37.86037894 6.82139379 36.75257931 4 34 C-0.59120266 26.90830628 -0.48690656 20.79172947 -0.25 12.5 C-0.23195313 11.29601562 -0.21390625 10.09203125 -0.1953125 8.8515625 C-0.14846554 5.90020395 -0.08288005 2.95052964 0 0 Z " fill="#EEF1CC" transform="translate(419,552)"/>
<path d="M0 0 C9.24 0 18.48 0 28 0 C28 2.97 28 5.94 28 9 C25.03 9 22.06 9 19 9 C19 18.57 19 28.14 19 38 C15.7 38 12.4 38 9 38 C9 28.43 9 18.86 9 9 C6.03 9 3.06 9 0 9 C0 6.03 0 3.06 0 0 Z " fill="#E9EDC8" transform="translate(385,552)"/>
<path d="M0 0 C4.47915328 -0.02886338 8.95828291 -0.04675187 13.4375 -0.0625 C14.71689453 -0.07087891 15.99628906 -0.07925781 17.31445312 -0.08789062 C19.13686523 -0.09272461 19.13686523 -0.09272461 20.99609375 -0.09765625 C22.12200928 -0.10289307 23.2479248 -0.10812988 24.40795898 -0.11352539 C27 0 27 0 28 1 C28.125 4.5 28.125 4.5 28 8 C27.67 8.33 27.34 8.66 27 9 C24.03 9 21.06 9 18 9 C18 18.57 18 28.14 18 38 C15.03 38 12.06 38 9 38 C9 28.43 9 18.86 9 9 C6.03 9 3.06 9 0 9 C0 6.03 0 3.06 0 0 Z " fill="#F1F5CF" transform="translate(457,552)"/>
<path d="M0 0 C2.97 0 5.94 0 9 0 C9 9.9 9 19.8 9 30 C13.95 30 18.9 30 24 30 C24 32.64 24 35.28 24 38 C16.08 38 8.16 38 0 38 C0 25.46 0 12.92 0 0 Z " fill="#F5F8D3" transform="translate(140,552)"/>
<path d="M0 0 C3.3 0 6.6 0 10 0 C10 12.54 10 25.08 10 38 C6.7 38 3.4 38 0 38 C0 25.46 0 12.92 0 0 Z " fill="#EBEFCA" transform="translate(572,552)"/>
<path d="M0 0 C2.92937654 1.81310142 5.43647949 3.87295899 7 7 C7.13023001 11.7347912 6.59774612 15.13854236 3.875 19.0625 C0.17599946 21.55530471 -1.61659233 21.76901889 -6 21 C-9.58014577 18.94473113 -11.36748152 17.74665002 -12.76953125 13.875 C-13.36459677 10.58267488 -13.60197176 8.1310485 -12 5.12109375 C-8.35117158 0.61435627 -5.71857385 -0.65983544 0 0 Z " fill="#1D3323" transform="translate(513,560)"/>
<path d="M0 0 C8.625 -0.25 8.625 -0.25 12 2 C11.25 6.75 11.25 6.75 9 9 C5.98173347 9.27240673 3.03629378 9.08675125 0 9 C0 6.03 0 3.06 0 0 Z " fill="#233928" transform="translate(545,561)"/>
<path d="M0 0 C2.22825644 2.22825644 2.69239369 3.65761628 3.625 6.625 C3.88539063 7.44226563 4.14578125 8.25953125 4.4140625 9.1015625 C4.60742188 9.72804688 4.80078125 10.35453125 5 11 C4 12 4 12 2.15234375 12.09765625 C0.1015625 12.06510417 -1.94921875 12.03255208 -4 12 C-3.52494322 10.18641846 -3.04483958 8.37415821 -2.5625 6.5625 C-2.29566406 5.55316406 -2.02882812 4.54382813 -1.75390625 3.50390625 C-1 1 -1 1 0 0 Z " fill="#334734" transform="translate(188,565)"/>
<path d="M0 0 C2 1 2 1 2.8515625 2.9609375 C3.10679687 3.75757813 3.36203125 4.55421875 3.625 5.375 C3.88539063 6.16648437 4.14578125 6.95796875 4.4140625 7.7734375 C5 10 5 10 5 13 C2.36 13 -0.28 13 -3 13 C-2.01 8.71 -1.02 4.42 0 0 Z " fill="#314533" transform="translate(269,564)"/>
</svg>
